<svg xmlns="http://www.w3.org/2000/svg" xmlns:xlink="http://www.w3.org/1999/xlink" viewBox="0 0 301.05 339.82"><defs><style>.cls-1{fill:#454647;}.cls-2{fill:url(#Dégradé_sans_nom_72);}.cls-3{fill:url(#Dégradé_sans_nom_72-2);}.cls-4{fill:url(#Dégradé_sans_nom_72-3);}</style><linearGradient id="Dégradé_sans_nom_72" x1="112.24" y1="252.52" x2="394.18" y2="202.68" gradientUnits="userSpaceOnUse"><stop offset="0" stop-color="#89c4ff"/><stop offset="0.14" stop-color="#87b3ff"/><stop offset="0.32" stop-color="#85a6ff"/><stop offset="0.55" stop-color="#849eff"/><stop offset="1" stop-color="#849cff"/></linearGradient><linearGradient id="Dégradé_sans_nom_72-2" x1="259.47" y1="137" x2="291.17" y2="137" xlink:href="#Dégradé_sans_nom_72"/><linearGradient id="Dégradé_sans_nom_72-3" x1="182.68" y1="145.34" x2="374.56" y2="145.34" xlink:href="#Dégradé_sans_nom_72"/></defs><title>Fichier 2</title><g id="Calque_2" data-name="Calque 2"><g id="Calque_1-2" data-name="Calque 1"><path class="cls-1" d="M0,172.08c.58-12,1.18-23.86,3.43-35.7C16.1,69.82,71.31,14.62,138.17,3c64.13-11.19,117,9.59,159.36,58.32,5,5.76,4.61,9-.71,14.69-8.8,9.3-17.51,18.69-26.26,28a81.33,81.33,0,0,0-11.09,11.63c-7.84,8.13-15.62,16.32-23.55,24.36-4.39,4.47-8.54,4.32-12.92-.13-43.38-44.08-114.33-28.45-134.7,29.68a60.92,60.92,0,0,1-3.64-28.45l3.4-4.26c19.48-24.58,44.71-37.6,76.24-37.86,23.4-.19,44,7.61,61.91,22.5,2.44,2,3.84,2.18,6-.22,5.75-6.45,11.72-12.7,17.6-19A95.17,95.17,0,0,0,260.56,91C267,84.32,273.47,77.6,280,71c2.15-2.17,2.31-3.71,0-6.11-26.22-27.52-57.74-45.73-95.82-48.49C119,11.66,69.3,38.67,35.67,94.6c-14.4,24-19.92,50.56-20.12,78.35C10.18,179.77,5.08,179.49,0,172.08Z"/><path class="cls-2" d="M0,172.08c5.08,7.41,10.18,7.69,15.55.87.79,7.61,1,15.33,2.44,22.83,12.84,68.78,64.23,118.41,133.4,127.34,51.17,6.6,93.69-11.84,129-48.48,2.05-2.13,1.7-3.49-.09-5.32-6.52-6.66-13-13.37-19.46-20.07l9.71-12.66c9.21,9.62,18.47,19.19,27.62,28.87,3.64,3.85,3.77,7.91.27,12.08-33,39.34-74.76,61.87-126.59,62.27-81.77.64-149-53.11-167.63-132.9C1.63,195.72-.13,184.36.67,172.77.68,172.56.23,172.31,0,172.08Z"/><path class="cls-1" d="M270.58,236.59l-9.71,12.66a22.27,22.27,0,0,0-2.69,2.1c-14.58,15.39-31.81,26.77-52.07,33-39.46,12.15-76.4,8.11-107.4-21-26.7-25.1-35.58-56.43-27-92.36a138.91,138.91,0,0,0,12.92,27.88c.79,22.61,10.55,41,27.35,55.54,20,17.38,43.67,23.22,69.69,19.59,27.2-3.79,50.19-15.59,68.08-36.73a51.49,51.49,0,0,0,9.65-12.92c1.22-2,2.52-3.87,3.63-5.89,8.81-16,12.35-33.31,12.57-51.42,1.53-1.94,3-3.92,5.6-4.59,4.52-1.15,10.39,2.9,9.91,7-.08.74-.86.73-1-.23a1.67,1.67,0,0,1,.05-.49c1.87,13.15-1.39,25.62-5.12,38C281.81,217.46,276.21,227,270.58,236.59Z"/><path class="cls-3" d="M290.16,168.74a1.67,1.67,0,0,0-.05.49c.17,1,.95,1,1,.23.48-4.14-5.39-8.19-9.91-7-2.64.67-4.07,2.65-5.6,4.59-.35-3.12-.65-6.24-1-9.36a97.53,97.53,0,0,0-15.12-42A81.33,81.33,0,0,1,270.56,104,115.3,115.3,0,0,1,290.7,161.9C290.86,164.27,290.2,166.45,290.16,168.74Z"/><path class="cls-4" d="M88.3,169.55c9.07,27.87,28,45.93,56.08,53.16,29.92,7.71,56.25-.36,78.2-22.2,5.07-5,8.95-5.15,14,.07,7.65,7.88,15.23,15.82,22.83,23.74a51.49,51.49,0,0,1-9.65,12.92c-5.62-5.91-11.39-11.69-16.79-17.8-2.65-3-4.27-3-7.48-.46-27.76,22.1-58.77,27.73-92.47,16.8-20.32-6.6-35.93-19.81-48.38-36.94A138.91,138.91,0,0,1,71.74,171c-2.49-12.44-4-24.86-2.38-37.65,5-39.34,35.88-73.5,75.09-81.21,44.57-8.77,82.34,4.86,114,36.81.71.71,1.43,1.4,2.14,2.1a95.17,95.17,0,0,1-10.77,11.22c-13.32-15-29.42-25.95-48.6-31.88C169,60.4,138.58,63,112.05,85.57,95.12,100,85.44,118.47,84.66,141.1A60.92,60.92,0,0,0,88.3,169.55Z"/></g></g></svg>